<?xml version="1.0" encoding="utf-8"?>
<!-- Generator: Adobe Illustrator 19.2.1, SVG Export Plug-In . SVG Version: 6.00 Build 0)  -->
<svg version="1.1" id="Layer_1" xmlns="http://www.w3.org/2000/svg" xmlns:xlink="http://www.w3.org/1999/xlink" x="0px" y="0px"
	 viewBox="0 0 16 15" enable-background="new 0 0 16 15" xml:space="preserve">
<path fill="#92A58C" d="M15.01,3.316l-0.478-0.372c-0.158-0.123-0.387-0.094-0.51,0.063L8.666,9.879
	c-0.123,0.158-0.341,0.172-0.484,0.033L7.824,9.587C7.681,9.447,7.463,9.461,7.34,9.619l-0.378,0.483
	c-0.123,0.157-0.107,0.401,0.036,0.541l1.32,1.266c0.143,0.14,0.361,0.125,0.484-0.033l6.272-8.048
	C15.197,3.669,15.168,3.439,15.01,3.316z M10.91,3.316l-0.478-0.372c-0.158-0.123-0.388-0.094-0.51,0.063L4.566,9.879
	c-0.123,0.158-0.341,0.172-0.484,0.033L1.891,7.769C1.748,7.63,1.516,7.632,1.376,7.775L0.953,8.208
	c-0.14,0.143-0.137,0.374,0.006,0.514l3.258,3.185c0.143,0.14,0.361,0.125,0.484-0.033l6.272-8.048
	C11.096,3.669,11.067,3.439,10.91,3.316z"/>
</svg>
